<svg version="1.0" xmlns="http://www.w3.org/2000/svg"
 width="512.000000pt" height="512.000000pt" viewBox="0 0 512.000000 512.000000"
 preserveAspectRatio="xMidYMid meet">
<g transform="translate(0.000000,512.000000) scale(0.100000,-0.100000)"
fill="#000000" stroke="none">
<path d="M2370 5113 c-232 -22 -409 -56 -590 -115 -397 -129 -719 -325 -1019
-621 -412 -407 -662 -910 -742 -1497 -17 -123 -18 -496 -1 -626 26 -208 111
-545 136 -543 6 0 69 22 141 48 84 30 129 52 127 60 -1 7 -14 52 -28 100 -279
960 92 1973 925 2526 270 179 587 300 921 351 140 22 471 25 605 6 452 -64
880 -257 1198 -539 l47 -43 -212 -2 -213 -3 -3 -147 -3 -148 481 0 480 0 0
450 0 450 -150 0 -150 0 0 -195 c0 -107 -2 -195 -5 -195 -3 0 -39 29 -80 65
-466 406 -1079 631 -1700 623 -71 0 -146 -3 -165 -5z"/>
<path d="M2410 3915 c0 -116 -3 -156 -12 -159 -7 -2 -35 -8 -63 -15 -27 -6
-93 -32 -145 -58 -231 -113 -380 -355 -380 -618 0 -171 53 -299 175 -420 97
-98 165 -135 312 -174 l108 -28 3 -387 2 -387 -22 7 c-136 42 -258 187 -274
325 l-7 59 -148 0 -149 0 0 -42 c1 -162 99 -365 237 -487 71 -63 190 -126 285
-150 l73 -19 3 -156 3 -156 149 0 149 0 3 156 3 156 73 19 c413 105 639 571
460 946 -23 48 -56 91 -113 149 -95 97 -162 134 -314 173 l-106 28 -3 387 -2
387 22 -7 c136 -42 258 -187 274 -325 l7 -59 148 0 149 0 0 43 c-1 161 -99
364 -237 486 -71 63 -190 126 -285 150 l-73 19 -3 156 -3 156 -149 0 -150 0 0
-155z m0 -814 l0 -350 -63 18 c-115 32 -200 112 -228 214 -17 63 -5 177 25
242 34 74 115 158 189 195 33 16 64 30 69 30 4 0 8 -157 8 -349z m474 -798
c49 -34 101 -109 117 -166 17 -63 5 -177 -25 -242 -42 -93 -152 -192 -243
-220 l-23 -6 0 350 0 350 66 -19 c37 -10 85 -31 108 -47z"/>
<path d="M4851 3314 c-73 -24 -136 -45 -138 -47 -2 -3 7 -45 21 -93 265 -949
-110 -1952 -933 -2499 -797 -529 -1859 -491 -2611 92 -52 40 -110 87 -129 103
l-35 30 215 2 214 3 3 147 3 148 -481 0 -480 0 0 -450 0 -450 150 0 150 0 0
195 c0 107 3 195 6 195 4 0 36 -26 73 -58 850 -750 2130 -841 3075 -218 944
620 1372 1758 1070 2841 -14 50 -29 93 -32 96 -4 3 -67 -14 -141 -37z"/>
</g>
</svg>
