<?xml version="1.0" standalone="no"?>
<!DOCTYPE svg PUBLIC "-//W3C//DTD SVG 20010904//EN"
 "http://www.w3.org/TR/2001/REC-SVG-20010904/DTD/svg10.dtd">
<svg version="1.0" xmlns="http://www.w3.org/2000/svg"
 width="700.000000pt" height="700.000000pt" viewBox="0 0 700.000000 700.000000"
 preserveAspectRatio="xMidYMid meet">
<metadata>
Created by potrace 1.14, written by Peter Selinger 2001-2017
</metadata>
<g transform="translate(0.000000,700.000000) scale(0.100000,-0.100000)"
fill="#000000" stroke="none">
<path d="M3298 6995 c-2 -1 -41 -5 -88 -9 -47 -3 -95 -8 -107 -10 -12 -3 -46
-7 -75 -10 -29 -4 -64 -8 -78 -11 -14 -3 -45 -8 -70 -11 -25 -3 -48 -8 -51
-10 -4 -2 -24 -6 -45 -9 -104 -16 -454 -120 -569 -170 -16 -7 -55 -23 -85 -35
-207 -84 -501 -252 -693 -396 -451 -338 -786 -728 -1047 -1219 -124 -232 -272
-648 -314 -880 -12 -63 -26 -141 -31 -165 -6 -33 -14 -82 -24 -165 -10 -79 -7
-758 3 -820 4 -22 14 -80 22 -130 42 -255 138 -605 165 -605 12 0 210 70 287
102 39 16 73 35 73 41 2 15 1 20 -17 86 -61 221 -94 372 -109 496 -4 28 -8 61
-10 75 -24 164 -24 626 0 720 2 8 7 42 10 74 3 33 14 100 25 150 11 50 21 100
23 111 2 11 9 40 16 65 8 25 14 50 15 55 6 29 42 142 73 230 190 533 537 1014
994 1377 374 298 829 507 1319 607 203 42 319 51 615 51 246 0 321 -6 480 -35
121 -22 135 -25 200 -42 33 -8 68 -17 78 -18 26 -6 189 -55 212 -64 11 -5 81
-32 155 -61 293 -113 624 -310 842 -502 13 -11 41 -35 62 -54 l40 -34 -110 -1
c-60 0 -191 -1 -291 -2 l-183 -2 -1 -80 c0 -44 -2 -135 -3 -202 l-3 -123 656
0 656 0 1 615 0 615 -205 -2 -204 -3 -2 -257 c-1 -142 -4 -260 -7 -263 -3 -3
-54 35 -113 85 -436 368 -892 604 -1440 745 -99 25 -343 70 -440 79 -27 3 -77
8 -110 12 -55 6 -491 14 -497 9z"/>
<path d="M3299 5565 c0 0 -2 -91 -4 -203 -3 -203 -8 -232 -41 -232 -7 0 -54
-14 -104 -31 -316 -105 -532 -319 -628 -620 -86 -270 -52 -547 89 -742 60 -83
202 -218 269 -256 88 -50 219 -96 383 -135 l27 -6 0 -298 c1 -163 2 -401 3
-528 l2 -231 -27 8 c-62 17 -156 78 -216 138 -94 95 -153 212 -165 327 -2 23
-7 46 -10 51 -4 6 -83 10 -204 9 l-198 -1 2 -72 c5 -196 119 -443 282 -609
107 -110 291 -213 445 -250 39 -9 74 -19 78 -23 4 -3 8 -96 9 -206 2 -110 4
-205 6 -210 2 -6 79 -10 205 -10 l202 0 4 210 c2 116 6 213 10 216 4 3 45 16
92 28 460 118 771 577 706 1041 -24 176 -90 307 -227 451 -135 142 -228 188
-536 269 l-43 11 -1 322 c-1 177 -2 411 -3 520 -1 109 1 203 5 208 3 5 42 -9
89 -32 185 -93 306 -278 320 -490 0 -5 383 -5 401 -1 10 3 1 131 -15 207 -32
152 -146 352 -275 482 -101 101 -280 199 -438 239 -37 10 -71 20 -75 23 -4 4
-8 98 -10 209 -2 112 -5 207 -8 211 -3 4 -380 10 -401 6z m-8 -967 c4 -354 5
-815 1 -825 -5 -16 -141 28 -209 69 -92 55 -171 161 -188 251 -18 93 -1 232
38 317 44 96 155 210 256 264 102 55 101 56 102 -76z m573 -1410 c73 -28 138
-85 188 -162 45 -70 57 -111 59 -192 3 -174 -42 -284 -168 -408 -75 -75 -224
-162 -236 -138 -3 6 -1 926 2 944 1 8 72 -12 155 -44z"/>
<path d="M6745 4564 c-124 -36 -281 -88 -291 -96 -9 -6 -2 -45 22 -141 79
-310 108 -530 108 -817 0 -194 -11 -340 -36 -485 -5 -33 -11 -71 -13 -85 -2
-14 -11 -59 -20 -100 -107 -481 -337 -945 -655 -1323 -155 -185 -317 -337
-515 -486 -172 -128 -269 -189 -450 -281 -264 -135 -575 -240 -835 -285 -211
-36 -358 -49 -555 -49 -117 0 -320 10 -360 18 -11 2 -45 7 -75 10 -77 10 -255
45 -315 62 -27 8 -50 14 -50 13 0 -3 -94 25 -174 51 -279 91 -606 258 -821
417 -112 84 -301 235 -298 239 2 1 130 4 286 7 155 2 284 6 286 8 2 2 6 93 9
202 l5 197 -657 0 -657 0 0 -615 0 -615 203 0 c112 0 203 3 204 8 0 4 2 121 3
259 1 139 5 255 8 259 5 4 113 -77 128 -96 30 -40 435 -330 460 -330 4 0 10
-3 12 -7 7 -18 281 -158 431 -222 132 -56 353 -133 447 -156 8 -2 56 -13 105
-25 50 -12 97 -23 105 -25 8 -1 33 -6 55 -10 22 -4 50 -9 63 -11 12 -2 34 -6
50 -9 15 -3 47 -7 72 -10 25 -3 54 -8 65 -10 121 -24 675 -25 800 -1 11 2 45
7 75 10 30 4 69 9 85 11 364 62 669 158 980 310 613 300 1149 800 1490 1390
242 420 390 863 451 1350 25 202 24 666 -1 815 -2 14 -7 46 -10 72 -5 40 -26
163 -50 283 -7 37 -39 156 -66 248 -22 75 -23 75 -104 51z"/>
</g>
</svg>
